
<svg  height="44" width="175" viewBox="0 0 175 44" fill="none" xmlns="http://www.w3.org/2000/svg">
<path d="M23 7H17.375L5 31H10.4547L23 7Z" fill="#3056d3"/>
<path d="M26.964 31.42C28.784 31.42 30.24 30.804 30.996 29.712H31.052V31H34.104V21.116C34.104 17.784 31.864 15.74 28.28 15.74C24.976 15.74 22.456 17.672 21.98 20.584L25.144 21.256C25.452 19.604 26.6 18.624 28.28 18.624C29.764 18.624 30.66 19.24 30.66 20.304C30.66 21.228 29.876 21.704 27.384 22.32C23.576 23.216 22.092 24.56 22.092 27.052C22.092 29.712 24.024 31.42 26.964 31.42ZM27.524 28.508C26.096 28.508 25.34 27.948 25.34 26.828C25.34 25.904 26.096 25.344 28.168 24.812C29.736 24.364 30.464 23.972 30.744 23.44H30.8V25.988C30.8 27.472 29.456 28.508 27.524 28.508ZM37.0322 31H40.3922V22.684C40.3922 20.304 41.2882 19.156 42.9962 19.156C43.5002 19.156 43.9762 19.24 44.5922 19.408L45.1802 16.132C44.6482 15.964 44.0602 15.88 43.3882 15.88C41.9602 15.88 40.8682 16.496 40.2522 17.448H40.1962V16.16H37.0322V31ZM52.241 31.42C54.061 31.42 55.601 30.692 56.469 29.628H56.525V31H59.661V10.56H56.301V17.252H56.245C55.293 16.3 53.893 15.74 52.269 15.74C48.377 15.74 45.605 18.988 45.605 23.58C45.605 28.172 48.377 31.42 52.241 31.42ZM52.801 28.34C50.421 28.34 48.965 26.52 48.965 23.58C48.965 20.612 50.393 18.82 52.745 18.82C54.789 18.82 56.301 20.36 56.301 22.376V24.756C56.301 26.8 54.789 28.34 52.801 28.34ZM67.1593 31.42C68.9793 31.42 70.4353 30.804 71.1913 29.712H71.2473V31H74.2993V21.116C74.2993 17.784 72.0593 15.74 68.4753 15.74C65.1713 15.74 62.6513 17.672 62.1753 20.584L65.3393 21.256C65.6473 19.604 66.7953 18.624 68.4753 18.624C69.9593 18.624 70.8553 19.24 70.8553 20.304C70.8553 21.228 70.0713 21.704 67.5793 22.32C63.7713 23.216 62.2873 24.56 62.2873 27.052C62.2873 29.712 64.2193 31.42 67.1593 31.42ZM67.7193 28.508C66.2913 28.508 65.5353 27.948 65.5353 26.828C65.5353 25.904 66.2913 25.344 68.3633 24.812C69.9313 24.364 70.6593 23.972 70.9393 23.44H70.9953V25.988C70.9953 27.472 69.6513 28.508 67.7193 28.508ZM79.0606 31H82.3646L86.0606 20.136H86.1166L89.8126 31H93.1166L96.5326 16.16H93.2006L91.0446 26.352H90.9886L87.5726 16.16H84.6046L81.1886 26.352H81.1326L78.9766 16.16H75.6446L79.0606 31ZM104.672 31.42C108.984 31.42 111.896 28.256 111.896 23.58C111.896 18.904 108.984 15.74 104.672 15.74C100.388 15.74 97.4761 18.904 97.4761 23.58C97.4761 28.256 100.388 31.42 104.672 31.42ZM104.672 28.34C102.264 28.34 100.836 26.548 100.836 23.58C100.836 20.612 102.264 18.82 104.672 18.82C107.08 18.82 108.536 20.612 108.536 23.58C108.536 26.548 107.08 28.34 104.672 28.34ZM114.415 31H117.775V22.684C117.775 20.304 118.671 19.156 120.379 19.156C120.883 19.156 121.359 19.24 121.975 19.408L122.563 16.132C122.031 15.964 121.443 15.88 120.771 15.88C119.343 15.88 118.251 16.496 117.635 17.448H117.579V16.16H114.415V31ZM124.395 31H127.755V26.632L129.827 24.308H129.883L133.887 31H137.695L132.067 22.04L137.471 16.16H133.075L127.811 22.124H127.755V10.56H124.395V31ZM144.277 31.42C147.777 31.42 150.073 29.628 150.073 26.912C150.073 23.804 147.413 22.74 144.389 21.872C142.485 21.34 141.421 20.92 141.421 20.08C141.421 19.184 142.289 18.596 143.689 18.596C145.145 18.596 146.209 19.38 146.713 20.976L149.793 20.108C149.121 17.476 146.657 15.74 143.689 15.74C140.553 15.74 138.229 17.616 138.229 20.136C138.229 22.852 140.525 23.776 143.353 24.588C145.565 25.26 146.881 25.792 146.881 27.052C146.881 27.976 145.901 28.564 144.277 28.564C142.093 28.564 141.001 27.584 140.525 25.344L137.473 26.128C138.033 29.516 140.497 31.42 144.277 31.42Z" fill="#000"/>
</svg>
