<svg xmlns="http://www.w3.org/2000/svg" width="107" height="30" viewBox="0 0 107 30"><g fill="none" fill-rule="evenodd"><path fill="#000" d="M21.501 6.35v4.277l-3.226 1.905 3.226 1.905v8.404l-10.76 6.342L0 22.84V6.35L10.74 0l10.761 6.35zM7.535 10.786v7.568l3.205 1.884 2.866-1.693-3.227-1.906v-4.255l3.136-1.855-2.775-1.637-3.205 1.894z"></path><path fill="#44BCEE" d="M17.999 8.664L20.843 6.964 20.843 10.224 17.999 11.903z"></path><path fill="#229C80" d="M1.104 6.528L3.846 8.161 10.74 4.086 17.622 8.143 20.377 6.51 10.725 0.826z"></path><path fill="#0C7CC0" d="M4.121 20.083L4.121 8.783 10.422 5.059 10.422 8.277 6.856 10.383 6.856 18.459z"></path><path fill="#FBC547" d="M10.743 24.246L17.016 20.555 14.267 18.946 10.74 21.028 7.265 18.969 4.563 20.59zM17.641 16.201L20.382 14.582 14.163 10.911 11.419 12.525z"></path><path fill="#E63C2B" d="M18.042 16.801L18.042 20.767 11.101 24.871 11.101 28.158 20.822 22.417 20.822 15.157z"></path><path fill="#EFE2E2" d="M3.481 20.787L3.481 8.743.679 7.07.679 22.415 10.294 28.095 10.294 24.809zM11.037 13.04L11.037 16.343 17.405 20.11 17.405 16.798zM11.08 5.07L11.08 8.287 17.32 11.971 17.32 8.753z"></path><g fill="#000"><g transform="translate(0 5.632) translate(.01 .237)"><circle cx=".353" cy=".352" r="0.2"></circle><circle cx="1.058" cy="1.291" r="0.2"></circle><circle cx="1.999" cy="2.229" r="0.2"></circle><circle cx="2.939" cy="3.168" r="0.2"></circle></g><g transform="translate(0 5.632) translate(.01 2.114)"><circle cx=".353" cy=".352" r="0.2"></circle><circle cx="1.058" cy="1.291" r="0.2"></circle><circle cx="1.999" cy="2.229" r="0.2"></circle><circle cx="2.939" cy="3.168" r="0.2"></circle></g><g transform="translate(0 5.632) translate(.01 3.991)"><circle cx=".353" cy=".352" r="0.2"></circle><circle cx="1.058" cy="1.291" r="0.2"></circle><circle cx="1.999" cy="2.229" r="0.2"></circle><circle cx="2.939" cy="3.168" r="0.2"></circle></g><g transform="translate(0 5.632) translate(.01 6.103)"><circle cx=".353" cy=".352" r="0.2"></circle><circle cx="1.058" cy="1.291" r="0.2"></circle><circle cx="1.999" cy="2.229" r="0.2"></circle><circle cx="2.939" cy="3.168" r="0.2"></circle></g><g transform="translate(0 5.632) translate(.01 8.215)"><circle cx=".353" cy=".352" r="0.2"></circle><circle cx="1.058" cy="1.291" r="0.2"></circle><circle cx="1.999" cy="2.229" r="0.2"></circle><circle cx="2.939" cy="3.168" r="0.2"></circle></g><g transform="translate(0 5.632) translate(.01 10.327)"><circle cx=".353" cy=".352" r="0.2"></circle><circle cx="1.058" cy="1.291" r="0.2"></circle><circle cx="1.999" cy="2.229" r="0.2"></circle><circle cx="2.939" cy="3.168" r="0.2"></circle><circle cx="4.586" cy="5.045" r="0.2"></circle></g><g transform="translate(0 5.632) translate(.01 12.44)"><circle cx=".353" cy=".352" r="0.2"></circle><circle cx="1.058" cy="1.291" r="0.2"></circle><circle cx="1.999" cy="2.229" r="0.2"></circle><circle cx="2.939" cy="3.168" r="0.2"></circle><circle cx="3.645" cy="4.107" r="0.2"></circle><circle cx="4.586" cy="5.045" r="0.2"></circle></g><g transform="translate(0 5.632) translate(4.243 17.133)"><circle cx=".353" cy=".352" r="0.2"></circle><circle cx="1.058" cy="1.291" r="0.2"></circle><circle cx="1.999" cy="2.229" r="0.2"></circle><circle cx="2.939" cy="3.168" r="0.2"></circle><circle cx="3.88" cy="4.107" r="0.2"></circle></g><g transform="translate(0 5.632) translate(4.243 15.02)"><circle cx=".353" cy=".352" r="0.2"></circle><circle cx="1.058" cy="1.291" r="0.2"></circle><circle cx="1.999" cy="2.229" r="0.2"></circle><circle cx="2.939" cy="3.168" r="0.2"></circle><circle cx="3.645" cy="4.107" r="0.2"></circle><circle cx="4.586" cy="5.045" r="0.2"></circle><circle cx="5.526" cy="5.984" r="0.2"></circle></g><g transform="translate(0 5.632) translate(7.77 17.133)"><circle cx=".353" cy=".352" r="0.2"></circle><circle cx="1.293" cy="1.291" r="0.2"></circle><circle cx="2.234" cy="2.229" r="0.2"></circle></g><g transform="translate(0 5.632) translate(.01 14.551)"><circle cx=".353" cy=".352" r="0.2"></circle><circle cx="1.058" cy="1.291" r="0.2"></circle><circle cx="1.999" cy="2.229" r="0.2"></circle><circle cx="2.939" cy="3.168" r="0.2"></circle><circle cx="3.645" cy="4.107" r="0.2"></circle></g><g transform="translate(0 5.632) translate(11.298 .002)"><circle cx=".353" cy=".352" r="0.2"></circle><circle cx="1.058" cy="1.291" r="0.2"></circle><circle cx="1.999" cy="2.229" r="0.2"></circle><circle cx="2.939" cy="3.168" r="0.2"></circle><circle cx="3.645" cy="4.107" r="0.2"></circle><circle cx="4.586" cy="5.045" r="0.2"></circle></g><g transform="translate(0 5.632) translate(13.414 .237)"><circle cx=".353" cy=".352" r="0.2"></circle><circle cx="1.058" cy="1.291" r="0.2"></circle><circle cx="1.999" cy="2.229" r="0.2"></circle><circle cx="2.939" cy="3.168" r="0.2"></circle><circle cx="3.645" cy="4.107" r="0.2"></circle></g><g transform="translate(0 5.632) translate(11.298 1.88)"><circle cx=".353" cy=".352" r="0.2"></circle><circle cx="1.058" cy="1.291" r="0.2"></circle></g><g transform="translate(0 5.632) translate(11.298 7.98)"><circle cx=".353" cy=".352" r="0.2"></circle><circle cx="1.058" cy="1.291" r="0.2"></circle><circle cx="1.999" cy="2.229" r="0.2"></circle><circle cx="2.939" cy="3.168" r="0.2"></circle><circle cx="3.645" cy="4.107" r="0.2"></circle><circle cx="4.586" cy="5.045" r="0.2"></circle></g><g transform="translate(0 5.632) translate(11.063 9.858)"><circle cx=".353" cy=".352" r="0.2"></circle><circle cx="1.058" cy="1.291" r="0.2"></circle></g><g transform="translate(0 5.632) translate(13.414 8.215)"><circle cx=".353" cy=".352" r="0.2"></circle><circle cx="1.058" cy="1.291" r="0.2"></circle><circle cx="1.999" cy="2.229" r="0.2"></circle><circle cx="2.939" cy="3.168" r="0.2"></circle><circle cx="3.645" cy="4.107" r="0.2"></circle></g></g><g transform="translate(34.4 3.2)"><path fill="#2C3133" d="M6.088 22.8c-1.561 0-2.82-.298-3.776-.895S.761 20.453.527 19.337l3.336-.381c.117.509.371.91.761 1.203.39.294.908.44 1.552.44.917 0 1.59-.283 2.02-.85.428-.568.643-1.419.643-2.554v-.675l.03-1.261h-.03c-.741 1.584-2.117 2.367-4.127 2.347-1.502 0-2.663-.562-3.483-1.687C.41 14.794 0 13.185 0 11.092S.424 7.38 1.273 6.236c.849-1.145 2.073-1.717 3.673-1.717 1.874 0 3.171.773 3.893 2.318h.059c0-.274.02-.65.058-1.13.04-.479.078-.797.117-.953h3.132c-.04.86-.059 1.858-.059 2.993v9.507c0 1.839-.517 3.223-1.55 4.152-1.035.93-2.537 1.394-4.508 1.394zm2.78-11.767c0-1.33-.234-2.367-.702-3.11-.468-.744-1.142-1.115-2.02-1.115-1.775 0-2.663 1.428-2.663 4.284 0 2.797.878 4.196 2.634 4.196.878 0 1.556-.367 2.034-1.1.478-.734.717-1.785.717-3.155zm6.644 6.603v-9.86c0-.704-.01-1.291-.03-1.76-.019-.47-.038-.89-.058-1.262h3.161c.02.137.054.572.103 1.305.049.734.073 1.218.073 1.453h.03c.331-.9.624-1.536.877-1.907.254-.372.552-.646.893-.822.341-.176.776-.264 1.302-.264.43 0 .771.059 1.025.176v2.788c-.547-.118-1.015-.176-1.405-.176-.84 0-1.488.337-1.946 1.012-.459.675-.688 1.677-.688 3.008v6.309h-3.337zm14.693.234c-1.932 0-3.415-.572-4.449-1.716-1.034-1.145-1.551-2.812-1.551-5.003 0-2.133.527-3.771 1.58-4.915 1.054-1.145 2.547-1.717 4.478-1.717 1.835 0 3.24.616 4.215 1.849.976 1.232 1.463 3.022 1.463 5.37v.117h-8.224c0 1.252.23 2.196.688 2.831.458.636 1.117.954 1.975.954 1.171 0 1.913-.508 2.225-1.526l3.16.264c-.916 2.328-2.77 3.492-5.56 3.492zm0-11.238c-.78 0-1.38.274-1.8.821-.42.548-.64 1.311-.659 2.29h4.976c-.059-1.038-.307-1.815-.746-2.334-.44-.518-1.03-.777-1.771-.777zM46.77 17.636c-.04-.118-.078-.416-.117-.895-.04-.48-.059-.876-.059-1.189h-.058c-.722 1.546-2.088 2.318-4.098 2.318-1.502 0-2.659-.582-3.468-1.746-.81-1.164-1.215-2.802-1.215-4.915 0-2.132.43-3.78 1.288-4.944.858-1.164 2.078-1.746 3.658-1.746.918 0 1.703.19 2.357.572.653.382 1.156.954 1.507 1.717h.03l-.03-2.113V0h3.336v14.819c0 .802.03 1.74.088 2.817h-3.22zm-.147-6.515c0-1.389-.234-2.455-.702-3.198-.468-.744-1.151-1.115-2.049-1.115-.897 0-1.56.362-1.99 1.085-.43.724-.644 1.83-.644 3.316 0 2.915.868 4.372 2.605 4.372.878 0 1.56-.386 2.049-1.159.487-.772.731-1.873.731-3.3zM56.4 4.754v7.218c0 2.27.761 3.404 2.283 3.404.8 0 1.449-.347 1.946-1.042.498-.694.747-1.58.747-2.655V4.754h3.336V14.76c0 1.095.03 2.054.088 2.876h-3.161c-.098-1.135-.146-1.986-.146-2.553h-.059c-.449.978-1.014 1.687-1.697 2.127-.683.44-1.493.66-2.43.66-1.366 0-2.414-.415-3.146-1.247-.732-.831-1.098-2.059-1.098-3.682V4.754H56.4z"></path><circle cx="70.2" cy="15" r="1.8" fill="#FCD25A"></circle></g></g></svg>